<?xml version="1.0" encoding="UTF-8"?>
<svg width="512" height="512" viewBox="0 0 512 512" fill="none" xmlns="http://www.w3.org/2000/svg" role="img" aria-label="jualtani app icon">
  <defs>
    <linearGradient id="gt2" x1="0" y1="0" x2="1" y2="1">
      <stop offset="0%" stop-color="#10B981"/>
      <stop offset="100%" stop-color="#059669"/>
    </linearGradient>
    <linearGradient id="sun2" x1="0" y1="0" x2="0" y2="1">
      <stop offset="0%" stop-color="#FCD34D"/>
      <stop offset="100%" stop-color="#F59E0B"/>
    </linearGradient>
  </defs>

  <!-- Rounded square background -->
  <rect x="0" y="0" width="512" height="512" rx="112" fill="url(#gt2)"/>

  <!-- Price tag silhouette -->
  <g transform="translate(96,76) scale(1)">
    <path d="M40 0 H240 a28 28 0 0 1 28 28 V170 a28 28 0 0 1-9 20 L210 370 0 230 a28 28 0 0 1-12-22 V28 A28 28 0 0 1 16 0 Z"
          fill="rgba(255,255,255,0.12)"/>
    <circle cx="250" cy="36" r="12" fill="white" opacity="0.6"/>
    <circle cx="134" cy="100" r="38" fill="url(#sun2)" opacity="0.95"/>
    <path d="M134 260 C134 210 134 188 134 176
             C134 164 144 154 156 152
             C192 146 220 164 230 186
             C212 192 182 196 156 186
             C150 184 146 178 144 174
             C142 178 138 184 132 186
             C106 196 74 192 56 186
             C66 164 94 146 130 152
             C142 154 152 164 152 176
             C152 188 152 210 152 260 Z"
          fill="white" opacity="0.95"/>
  </g>

  <!-- Small wordmark for icon (optional visibility) -->
  <text x="256" y="458" text-anchor="middle"
        font-family="Inter, ui-sans-serif, system-ui, -apple-system, Segoe UI, Roboto, Helvetica, Arial"
        font-size="56" font-weight="800" fill="white" opacity="0.9">jualtani</text>
</svg>
